<mxfile host="app.diagrams.net" agent="Mozilla/5.0 (Macintosh; Intel Mac OS X 10_15_7) AppleWebKit/537.36 (KHTML, like Gecko) Chrome/139.0.0.0 Safari/537.36" version="28.1.1">
  <diagram name="Page-1" id="MhXgMfVs0OqnbR7L4ka6">
    <mxGraphModel dx="2036" dy="1310" grid="1" gridSize="10" guides="1" tooltips="1" connect="1" arrows="1" fold="1" page="1" pageScale="1" pageWidth="850" pageHeight="1100" math="0" shadow="0">
      <root>
        <mxCell id="0" />
        <mxCell id="1" parent="0" />
        <mxCell id="0-l8gqlH9N3u25FJit93-6" value="" style="shape=cube;whiteSpace=wrap;html=1;boundedLbl=1;backgroundOutline=1;darkOpacity=0.05;darkOpacity2=0.1;direction=south;fillColor=#ffe6cc;strokeColor=#d79b00;" vertex="1" parent="1">
          <mxGeometry x="450" y="280" width="60" height="340" as="geometry" />
        </mxCell>
        <mxCell id="0-l8gqlH9N3u25FJit93-7" value="" style="shape=cube;whiteSpace=wrap;html=1;boundedLbl=1;backgroundOutline=1;darkOpacity=0.05;darkOpacity2=0.1;direction=south;fillColor=#ffe6cc;strokeColor=#d79b00;" vertex="1" parent="1">
          <mxGeometry x="670" y="280" width="90" height="340" as="geometry" />
        </mxCell>
        <mxCell id="0-l8gqlH9N3u25FJit93-8" value="" style="shape=cube;whiteSpace=wrap;html=1;boundedLbl=1;backgroundOutline=1;darkOpacity=0.05;darkOpacity2=0.1;direction=south;fillColor=#ffe6cc;strokeColor=#d79b00;" vertex="1" parent="1">
          <mxGeometry x="920" y="280" width="90" height="340" as="geometry" />
        </mxCell>
        <mxCell id="0-l8gqlH9N3u25FJit93-9" value="" style="shape=cube;whiteSpace=wrap;html=1;boundedLbl=1;backgroundOutline=1;darkOpacity=0.05;darkOpacity2=0.1;direction=south;fillColor=#ffe6cc;strokeColor=#d79b00;" vertex="1" parent="1">
          <mxGeometry x="1170" y="280" width="60" height="340" as="geometry" />
        </mxCell>
        <mxCell id="0-l8gqlH9N3u25FJit93-10" value="" style="shape=cube;whiteSpace=wrap;html=1;boundedLbl=1;backgroundOutline=1;darkOpacity=0.05;darkOpacity2=0.1;direction=south;fillColor=#d5e8d4;strokeColor=#82b366;" vertex="1" parent="1">
          <mxGeometry x="1390" y="280" width="30" height="340" as="geometry" />
        </mxCell>
        <mxCell id="0-l8gqlH9N3u25FJit93-12" value="" style="endArrow=classic;html=1;rounded=0;strokeWidth=2;" edge="1" parent="1">
          <mxGeometry width="50" height="50" relative="1" as="geometry">
            <mxPoint x="520" y="449.23" as="sourcePoint" />
            <mxPoint x="660" y="449.23" as="targetPoint" />
          </mxGeometry>
        </mxCell>
        <mxCell id="0-l8gqlH9N3u25FJit93-14" value="" style="endArrow=classic;html=1;rounded=0;strokeWidth=2;" edge="1" parent="1">
          <mxGeometry width="50" height="50" relative="1" as="geometry">
            <mxPoint x="1020" y="449.23" as="sourcePoint" />
            <mxPoint x="1160" y="449.23" as="targetPoint" />
          </mxGeometry>
        </mxCell>
        <mxCell id="0-l8gqlH9N3u25FJit93-15" value="" style="endArrow=classic;html=1;rounded=0;strokeWidth=2;" edge="1" parent="1">
          <mxGeometry width="50" height="50" relative="1" as="geometry">
            <mxPoint x="1240" y="449.23" as="sourcePoint" />
            <mxPoint x="1380" y="449.23" as="targetPoint" />
          </mxGeometry>
        </mxCell>
        <mxCell id="0-l8gqlH9N3u25FJit93-16" value="" style="endArrow=classic;html=1;rounded=0;strokeWidth=2;" edge="1" parent="1">
          <mxGeometry width="50" height="50" relative="1" as="geometry">
            <mxPoint x="770" y="449.23" as="sourcePoint" />
            <mxPoint x="910" y="449.23" as="targetPoint" />
          </mxGeometry>
        </mxCell>
        <mxCell id="0-l8gqlH9N3u25FJit93-17" value="" style="endArrow=classic;html=1;rounded=0;strokeWidth=2;" edge="1" parent="1">
          <mxGeometry width="50" height="50" relative="1" as="geometry">
            <mxPoint x="285" y="449.23" as="sourcePoint" />
            <mxPoint x="425" y="449.23" as="targetPoint" />
          </mxGeometry>
        </mxCell>
        <mxCell id="0-l8gqlH9N3u25FJit93-2" value="" style="shape=cube;whiteSpace=wrap;html=1;boundedLbl=1;backgroundOutline=1;darkOpacity=0.05;darkOpacity2=0.1;direction=south;fillColor=#dae8fc;strokeColor=#6c8ebf;" vertex="1" parent="1">
          <mxGeometry x="210" y="280" width="40" height="340" as="geometry" />
        </mxCell>
        <mxCell id="0-l8gqlH9N3u25FJit93-3" value="500" style="text;html=1;align=center;verticalAlign=middle;resizable=0;points=[];autosize=1;strokeColor=none;fillColor=none;fontStyle=3;fontSize=14;" vertex="1" parent="1">
          <mxGeometry x="245" y="290" width="50" height="30" as="geometry" />
        </mxCell>
        <mxCell id="0-l8gqlH9N3u25FJit93-4" value="375" style="text;html=1;align=center;verticalAlign=middle;resizable=0;points=[];autosize=1;strokeColor=none;fillColor=none;fontStyle=3;fontSize=14;" vertex="1" parent="1">
          <mxGeometry x="245" y="600" width="50" height="30" as="geometry" />
        </mxCell>
        <mxCell id="0-l8gqlH9N3u25FJit93-5" value="3" style="text;html=1;align=center;verticalAlign=middle;resizable=0;points=[];autosize=1;strokeColor=none;fillColor=none;fontStyle=3;fontSize=14;" vertex="1" parent="1">
          <mxGeometry x="200" y="620" width="30" height="30" as="geometry" />
        </mxCell>
        <mxCell id="0-l8gqlH9N3u25FJit93-18" value="500" style="text;html=1;align=center;verticalAlign=middle;resizable=0;points=[];autosize=1;strokeColor=none;fillColor=none;fontStyle=3;fontSize=14;" vertex="1" parent="1">
          <mxGeometry x="505" y="290" width="50" height="30" as="geometry" />
        </mxCell>
        <mxCell id="0-l8gqlH9N3u25FJit93-19" value="500" style="text;html=1;align=center;verticalAlign=middle;resizable=0;points=[];autosize=1;strokeColor=none;fillColor=none;fontStyle=3;fontSize=14;" vertex="1" parent="1">
          <mxGeometry x="755" y="290" width="50" height="30" as="geometry" />
        </mxCell>
        <mxCell id="0-l8gqlH9N3u25FJit93-20" value="500" style="text;html=1;align=center;verticalAlign=middle;resizable=0;points=[];autosize=1;strokeColor=none;fillColor=none;fontStyle=3;fontSize=14;" vertex="1" parent="1">
          <mxGeometry x="1005" y="290" width="50" height="30" as="geometry" />
        </mxCell>
        <mxCell id="0-l8gqlH9N3u25FJit93-21" value="500" style="text;html=1;align=center;verticalAlign=middle;resizable=0;points=[];autosize=1;strokeColor=none;fillColor=none;fontStyle=3;fontSize=14;" vertex="1" parent="1">
          <mxGeometry x="1225" y="290" width="50" height="30" as="geometry" />
        </mxCell>
        <mxCell id="0-l8gqlH9N3u25FJit93-22" value="500" style="text;html=1;align=center;verticalAlign=middle;resizable=0;points=[];autosize=1;strokeColor=none;fillColor=none;fontStyle=3;fontSize=14;" vertex="1" parent="1">
          <mxGeometry x="1415" y="290" width="50" height="30" as="geometry" />
        </mxCell>
        <mxCell id="0-l8gqlH9N3u25FJit93-23" value="375" style="text;html=1;align=center;verticalAlign=middle;resizable=0;points=[];autosize=1;strokeColor=none;fillColor=none;fontStyle=3;fontSize=14;" vertex="1" parent="1">
          <mxGeometry x="505" y="600" width="50" height="30" as="geometry" />
        </mxCell>
        <mxCell id="0-l8gqlH9N3u25FJit93-24" value="375" style="text;html=1;align=center;verticalAlign=middle;resizable=0;points=[];autosize=1;strokeColor=none;fillColor=none;fontStyle=3;fontSize=14;" vertex="1" parent="1">
          <mxGeometry x="755" y="600" width="50" height="30" as="geometry" />
        </mxCell>
        <mxCell id="0-l8gqlH9N3u25FJit93-25" value="375" style="text;html=1;align=center;verticalAlign=middle;resizable=0;points=[];autosize=1;strokeColor=none;fillColor=none;fontStyle=3;fontSize=14;" vertex="1" parent="1">
          <mxGeometry x="1005" y="600" width="50" height="30" as="geometry" />
        </mxCell>
        <mxCell id="0-l8gqlH9N3u25FJit93-26" value="375" style="text;html=1;align=center;verticalAlign=middle;resizable=0;points=[];autosize=1;strokeColor=none;fillColor=none;fontStyle=3;fontSize=14;" vertex="1" parent="1">
          <mxGeometry x="1225" y="600" width="50" height="30" as="geometry" />
        </mxCell>
        <mxCell id="0-l8gqlH9N3u25FJit93-27" value="375" style="text;html=1;align=center;verticalAlign=middle;resizable=0;points=[];autosize=1;strokeColor=none;fillColor=none;fontStyle=3;fontSize=14;" vertex="1" parent="1">
          <mxGeometry x="1415" y="600" width="50" height="30" as="geometry" />
        </mxCell>
        <mxCell id="0-l8gqlH9N3u25FJit93-28" value="128" style="text;html=1;align=center;verticalAlign=middle;resizable=0;points=[];autosize=1;strokeColor=none;fillColor=none;fontStyle=3;fontSize=14;" vertex="1" parent="1">
          <mxGeometry x="440" y="620" width="50" height="30" as="geometry" />
        </mxCell>
        <mxCell id="0-l8gqlH9N3u25FJit93-29" value="512" style="text;html=1;align=center;verticalAlign=middle;resizable=0;points=[];autosize=1;strokeColor=none;fillColor=none;fontStyle=3;fontSize=14;" vertex="1" parent="1">
          <mxGeometry x="665" y="620" width="50" height="30" as="geometry" />
        </mxCell>
        <mxCell id="0-l8gqlH9N3u25FJit93-30" value="512" style="text;html=1;align=center;verticalAlign=middle;resizable=0;points=[];autosize=1;strokeColor=none;fillColor=none;fontStyle=3;fontSize=14;" vertex="1" parent="1">
          <mxGeometry x="915" y="620" width="50" height="30" as="geometry" />
        </mxCell>
        <mxCell id="0-l8gqlH9N3u25FJit93-31" value="128" style="text;html=1;align=center;verticalAlign=middle;resizable=0;points=[];autosize=1;strokeColor=none;fillColor=none;fontStyle=3;fontSize=14;" vertex="1" parent="1">
          <mxGeometry x="1165" y="620" width="50" height="30" as="geometry" />
        </mxCell>
        <mxCell id="0-l8gqlH9N3u25FJit93-32" value="1" style="text;html=1;align=center;verticalAlign=middle;resizable=0;points=[];autosize=1;strokeColor=none;fillColor=none;fontStyle=3;fontSize=14;" vertex="1" parent="1">
          <mxGeometry x="1380" y="620" width="30" height="30" as="geometry" />
        </mxCell>
        <mxCell id="0-l8gqlH9N3u25FJit93-33" value="&lt;font style=&quot;font-size: 16px;&quot;&gt;&lt;b&gt;3x3 FILTER&lt;/b&gt;&lt;/font&gt;" style="text;html=1;align=center;verticalAlign=middle;resizable=0;points=[];autosize=1;strokeColor=none;fillColor=none;" vertex="1" parent="1">
          <mxGeometry x="290" y="408" width="110" height="30" as="geometry" />
        </mxCell>
        <mxCell id="0-l8gqlH9N3u25FJit93-34" value="&lt;font style=&quot;font-size: 16px;&quot;&gt;&lt;b&gt;3x3 FILTER&lt;/b&gt;&lt;/font&gt;" style="text;html=1;align=center;verticalAlign=middle;resizable=0;points=[];autosize=1;strokeColor=none;fillColor=none;" vertex="1" parent="1">
          <mxGeometry x="530" y="408" width="110" height="30" as="geometry" />
        </mxCell>
        <mxCell id="0-l8gqlH9N3u25FJit93-35" value="&lt;font style=&quot;font-size: 16px;&quot;&gt;&lt;b&gt;3x3 FILTER&lt;/b&gt;&lt;/font&gt;" style="text;html=1;align=center;verticalAlign=middle;resizable=0;points=[];autosize=1;strokeColor=none;fillColor=none;" vertex="1" parent="1">
          <mxGeometry x="790" y="400" width="110" height="30" as="geometry" />
        </mxCell>
        <mxCell id="0-l8gqlH9N3u25FJit93-36" value="&lt;font style=&quot;font-size: 16px;&quot;&gt;&lt;b&gt;3x3 FILTER&lt;/b&gt;&lt;/font&gt;" style="text;html=1;align=center;verticalAlign=middle;resizable=0;points=[];autosize=1;strokeColor=none;fillColor=none;" vertex="1" parent="1">
          <mxGeometry x="1040" y="400" width="110" height="30" as="geometry" />
        </mxCell>
        <mxCell id="0-l8gqlH9N3u25FJit93-37" value="&lt;font style=&quot;font-size: 16px;&quot;&gt;&lt;b&gt;3x3 FILTER&lt;/b&gt;&lt;/font&gt;" style="text;html=1;align=center;verticalAlign=middle;resizable=0;points=[];autosize=1;strokeColor=none;fillColor=none;" vertex="1" parent="1">
          <mxGeometry x="1260" y="400" width="110" height="30" as="geometry" />
        </mxCell>
        <mxCell id="0-l8gqlH9N3u25FJit93-38" value="&lt;font style=&quot;font-size: 16px;&quot;&gt;&lt;b&gt;ReLU Activation&lt;/b&gt;&lt;/font&gt;" style="text;html=1;align=center;verticalAlign=middle;resizable=0;points=[];autosize=1;strokeColor=none;fillColor=none;" vertex="1" parent="1">
          <mxGeometry x="275" y="460" width="150" height="30" as="geometry" />
        </mxCell>
        <mxCell id="0-l8gqlH9N3u25FJit93-39" value="&lt;font style=&quot;font-size: 16px;&quot;&gt;&lt;b&gt;ReLU Activation&lt;/b&gt;&lt;/font&gt;" style="text;html=1;align=center;verticalAlign=middle;resizable=0;points=[];autosize=1;strokeColor=none;fillColor=none;" vertex="1" parent="1">
          <mxGeometry x="520" y="460" width="150" height="30" as="geometry" />
        </mxCell>
        <mxCell id="0-l8gqlH9N3u25FJit93-40" value="&lt;font style=&quot;font-size: 16px;&quot;&gt;&lt;b&gt;ReLU Activation&lt;/b&gt;&lt;/font&gt;" style="text;html=1;align=center;verticalAlign=middle;resizable=0;points=[];autosize=1;strokeColor=none;fillColor=none;" vertex="1" parent="1">
          <mxGeometry x="770" y="460" width="150" height="30" as="geometry" />
        </mxCell>
        <mxCell id="0-l8gqlH9N3u25FJit93-41" value="&lt;font style=&quot;font-size: 16px;&quot;&gt;&lt;b&gt;ReLU Activation&lt;/b&gt;&lt;/font&gt;" style="text;html=1;align=center;verticalAlign=middle;resizable=0;points=[];autosize=1;strokeColor=none;fillColor=none;" vertex="1" parent="1">
          <mxGeometry x="1020" y="460" width="150" height="30" as="geometry" />
        </mxCell>
        <mxCell id="0-l8gqlH9N3u25FJit93-42" value="&lt;font style=&quot;font-size: 16px;&quot;&gt;&lt;b&gt;Signmoid&amp;nbsp;&lt;/b&gt;&lt;/font&gt;&lt;div&gt;&lt;font style=&quot;font-size: 16px;&quot;&gt;&lt;b&gt;Activation&lt;/b&gt;&lt;/font&gt;&lt;/div&gt;" style="text;html=1;align=center;verticalAlign=middle;resizable=0;points=[];autosize=1;strokeColor=none;fillColor=none;" vertex="1" parent="1">
          <mxGeometry x="1265" y="450" width="100" height="50" as="geometry" />
        </mxCell>
        <mxCell id="0-l8gqlH9N3u25FJit93-43" value="Input image" style="text;html=1;align=center;verticalAlign=middle;resizable=0;points=[];autosize=1;strokeColor=none;fillColor=none;fontSize=14;fontStyle=1" vertex="1" parent="1">
          <mxGeometry x="190" y="230" width="100" height="30" as="geometry" />
        </mxCell>
        <mxCell id="0-l8gqlH9N3u25FJit93-46" value="Output" style="text;html=1;align=center;verticalAlign=middle;resizable=0;points=[];autosize=1;strokeColor=none;fillColor=none;fontSize=14;fontStyle=1" vertex="1" parent="1">
          <mxGeometry x="1370" y="230" width="70" height="30" as="geometry" />
        </mxCell>
        <mxCell id="0-l8gqlH9N3u25FJit93-48" style="edgeStyle=orthogonalEdgeStyle;rounded=0;orthogonalLoop=1;jettySize=auto;html=1;endArrow=baseDash;endFill=0;strokeWidth=2;" edge="1" parent="1" source="0-l8gqlH9N3u25FJit93-47">
          <mxGeometry relative="1" as="geometry">
            <mxPoint x="460" y="685.0000000000002" as="targetPoint" />
          </mxGeometry>
        </mxCell>
        <mxCell id="0-l8gqlH9N3u25FJit93-49" style="edgeStyle=orthogonalEdgeStyle;rounded=0;orthogonalLoop=1;jettySize=auto;html=1;endArrow=baseDash;endFill=0;strokeWidth=2;" edge="1" parent="1" source="0-l8gqlH9N3u25FJit93-47">
          <mxGeometry relative="1" as="geometry">
            <mxPoint x="1230" y="685" as="targetPoint" />
          </mxGeometry>
        </mxCell>
        <mxCell id="0-l8gqlH9N3u25FJit93-47" value="Stride = 1, Padding = 1 for all hidden layers" style="text;html=1;align=center;verticalAlign=middle;resizable=0;points=[];autosize=1;fontSize=14;fontStyle=1;strokeColor=default;rounded=0;glass=0;shadow=0;" vertex="1" parent="1">
          <mxGeometry x="715" y="670" width="290" height="30" as="geometry" />
        </mxCell>
      </root>
    </mxGraphModel>
  </diagram>
</mxfile>
